<svg xmlns="http://www.w3.org/2000/svg" xmlns:xlink="http://www.w3.org/1999/xlink" width="1080" zoomAndPan="magnify" viewBox="0 0 810 299.999988" height="400" preserveAspectRatio="xMidYMid meet" version="1.0"><defs><g/></defs><g fill="#ffffff" fill-opacity="1"><g transform="translate(0.738297, 201.525137)"><g><path d="M 31.828125 -17.578125 L 5.265625 -47.734375 L 31.828125 -78.046875 L 65.859375 -78.046875 L 39.296875 -47.734375 L 65.859375 -17.578125 Z M 31.828125 -17.578125 "/></g></g><g transform="translate(73.246791, 201.525137)"><g><path d="M 73.890625 -97.546875 L 73.890625 -75.96875 L 34.875 -75.96875 L 34.875 -58.8125 L 63.65625 -58.8125 L 63.65625 -38.1875 L 34.875 -38.1875 L 34.875 0 L 7.75 0 L 7.75 -97.546875 Z M 73.890625 -97.546875 "/></g></g></g><g fill="#ffffff" fill-opacity="1"><g transform="translate(150.875145, 201.525137)"><g><path d="M 34.875 -63.921875 C 37.914062 -68.359375 41.601562 -71.863281 45.9375 -74.4375 C 50.269531 -77.019531 54.929688 -78.3125 59.921875 -78.3125 L 59.921875 -49.40625 L 52.3125 -49.40625 C 46.40625 -49.40625 42.019531 -48.25 39.15625 -45.9375 C 36.300781 -43.632812 34.875 -39.625 34.875 -33.90625 L 34.875 0 L 7.75 0 L 7.75 -77.625 L 34.875 -77.625 Z M 34.875 -63.921875 "/></g></g></g><g fill="#ffffff" fill-opacity="1"><g transform="translate(212.728774, 201.525137)"><g><path d="M 3.328125 -38.890625 C 3.328125 -46.910156 4.773438 -53.914062 7.671875 -59.90625 C 10.578125 -65.90625 14.546875 -70.519531 19.578125 -73.75 C 24.609375 -76.976562 30.210938 -78.59375 36.390625 -78.59375 C 41.742188 -78.59375 46.359375 -77.53125 50.234375 -75.40625 C 54.109375 -73.289062 57.101562 -70.429688 59.21875 -66.828125 L 59.21875 -77.625 L 86.34375 -77.625 L 86.34375 0 L 59.21875 0 L 59.21875 -10.796875 C 57.101562 -7.191406 54.082031 -4.328125 50.15625 -2.203125 C 46.238281 -0.0859375 41.648438 0.96875 36.390625 0.96875 C 30.210938 0.96875 24.609375 -0.644531 19.578125 -3.875 C 14.546875 -7.101562 10.578125 -11.738281 7.671875 -17.78125 C 4.773438 -23.820312 3.328125 -30.859375 3.328125 -38.890625 Z M 59.21875 -38.890625 C 59.21875 -43.867188 57.859375 -47.785156 55.140625 -50.640625 C 52.421875 -53.503906 49.078125 -54.9375 45.109375 -54.9375 C 41.046875 -54.9375 37.675781 -53.53125 35 -50.71875 C 32.332031 -47.90625 31 -43.960938 31 -38.890625 C 31 -33.898438 32.332031 -29.953125 35 -27.046875 C 37.675781 -24.140625 41.046875 -22.6875 45.109375 -22.6875 C 49.078125 -22.6875 52.421875 -24.113281 55.140625 -26.96875 C 57.859375 -29.832031 59.21875 -33.804688 59.21875 -38.890625 Z M 59.21875 -38.890625 "/></g></g></g><g fill="#ffffff" fill-opacity="1"><g transform="translate(306.82376, 201.525137)"><g><path d="M 58.53125 -78.3125 C 67.476562 -78.3125 74.582031 -75.335938 79.84375 -69.390625 C 85.101562 -63.441406 87.734375 -55.394531 87.734375 -45.25 L 87.734375 0 L 60.609375 0 L 60.609375 -41.65625 C 60.609375 -46.082031 59.453125 -49.5625 57.140625 -52.09375 C 54.835938 -54.632812 51.75 -55.90625 47.875 -55.90625 C 43.820312 -55.90625 40.640625 -54.632812 38.328125 -52.09375 C 36.023438 -49.5625 34.875 -46.082031 34.875 -41.65625 L 34.875 0 L 7.75 0 L 7.75 -77.625 L 34.875 -77.625 L 34.875 -66.5625 C 37.269531 -70.0625 40.492188 -72.894531 44.546875 -75.0625 C 48.609375 -77.226562 53.269531 -78.3125 58.53125 -78.3125 Z M 58.53125 -78.3125 "/></g></g></g><g fill="#ffffff" fill-opacity="1"><g transform="translate(401.748991, 201.525137)"><g><path d="M 46.359375 -97.546875 C 56.597656 -97.546875 65.566406 -95.492188 73.265625 -91.390625 C 80.972656 -87.285156 86.898438 -81.539062 91.046875 -74.15625 C 95.203125 -66.78125 97.28125 -58.34375 97.28125 -48.84375 C 97.28125 -39.4375 95.179688 -31.039062 90.984375 -23.65625 C 86.785156 -16.28125 80.832031 -10.492188 73.125 -6.296875 C 65.425781 -2.097656 56.503906 0 46.359375 0 L 7.75 0 L 7.75 -97.546875 Z M 44.28125 -23.9375 C 52.21875 -23.9375 58.441406 -26.101562 62.953125 -30.4375 C 67.472656 -34.78125 69.734375 -40.914062 69.734375 -48.84375 C 69.734375 -56.875 67.472656 -63.078125 62.953125 -67.453125 C 58.441406 -71.835938 52.21875 -74.03125 44.28125 -74.03125 L 34.875 -74.03125 L 34.875 -23.9375 Z M 44.28125 -23.9375 "/></g></g></g><g fill="#ffffff" fill-opacity="1"><g transform="translate(503.454595, 201.525137)"><g><path d="M 81.921875 -39.71875 C 81.921875 -37.59375 81.78125 -35.46875 81.5 -33.34375 L 30.171875 -33.34375 C 30.441406 -29.101562 31.613281 -25.941406 33.6875 -23.859375 C 35.769531 -21.785156 38.425781 -20.75 41.65625 -20.75 C 46.175781 -20.75 49.40625 -22.78125 51.34375 -26.84375 L 80.25 -26.84375 C 79.050781 -21.488281 76.722656 -16.710938 73.265625 -12.515625 C 69.804688 -8.328125 65.445312 -5.03125 60.1875 -2.625 C 54.9375 -0.226562 49.128906 0.96875 42.765625 0.96875 C 35.097656 0.96875 28.289062 -0.644531 22.34375 -3.875 C 16.394531 -7.101562 11.738281 -11.710938 8.375 -17.703125 C 5.007812 -23.703125 3.328125 -30.765625 3.328125 -38.890625 C 3.328125 -47.003906 4.984375 -54.035156 8.296875 -59.984375 C 11.617188 -65.929688 16.253906 -70.519531 22.203125 -73.75 C 28.160156 -76.976562 35.015625 -78.59375 42.765625 -78.59375 C 50.421875 -78.59375 57.195312 -77.023438 63.09375 -73.890625 C 69 -70.753906 73.613281 -66.253906 76.9375 -60.390625 C 80.257812 -54.535156 81.921875 -47.644531 81.921875 -39.71875 Z M 54.25 -46.5 C 54.25 -49.8125 53.140625 -52.414062 50.921875 -54.3125 C 48.703125 -56.207031 45.9375 -57.15625 42.625 -57.15625 C 39.300781 -57.15625 36.578125 -56.253906 34.453125 -54.453125 C 32.328125 -52.648438 30.941406 -50 30.296875 -46.5 Z M 54.25 -46.5 "/></g></g></g><g fill="#ffffff" fill-opacity="1"><g transform="translate(588.693572, 201.525137)"><g><path d="M 44.96875 -25.59375 L 59.5 -77.625 L 88.421875 -77.625 L 61.71875 0 L 27.953125 0 L 1.25 -77.625 L 30.171875 -77.625 Z M 44.96875 -25.59375 "/></g></g></g><g fill="#ffffff" fill-opacity="1"><g transform="translate(678.498924, 201.525137)"><g><path d="M 61.296875 -131.734375 L 24.359375 26.703125 L -1.796875 26.703125 L 35.140625 -131.734375 Z M 61.296875 -131.734375 "/></g></g></g><g fill="#ffffff" fill-opacity="1"><g transform="translate(737.446658, 201.525137)"><g><path d="M 5.8125 -78.046875 L 39.71875 -78.046875 L 66.28125 -47.734375 L 39.71875 -17.578125 L 5.8125 -17.578125 L 32.375 -47.734375 Z M 5.8125 -78.046875 "/></g></g></g></svg>